<svg width="15" height="17" viewBox="0 0 15 17" fill="none" xmlns="http://www.w3.org/2000/svg">
<g clip-path="url(#clip0_68_368)">
<path d="M14.2504 9.2719C14.6396 8.88269 14.6396 8.25061 14.2504 7.8614L9.26849 2.87949C8.87928 2.49028 8.2472 2.49028 7.85799 2.87949C7.46878 3.26871 7.46878 3.90078 7.85799 4.29L11.1429 7.57183L1.59013 7.57183C1.03901 7.57183 0.59375 8.01708 0.59375 8.56821C0.59375 9.11933 1.03901 9.56459 1.59013 9.56459H11.1398L7.86111 12.8464C7.47189 13.2356 7.47189 13.8677 7.86111 14.2569C8.25032 14.6461 8.8824 14.6461 9.27161 14.2569L14.2535 9.27502L14.2504 9.2719Z" fill="currentColor"/>
</g>
<defs>
<clipPath id="clip0_68_368">
<rect width="13.9493" height="15.9421" fill="white" transform="translate(0.59375 0.597168)"/>
</clipPath>
</defs>
</svg>

