<svg width="25" height="20" viewBox="0 0 25 20" fill="none" xmlns="http://www.w3.org/2000/svg">
<path d="M21.1944 1.68876C21.1871 1.67434 21.175 1.66322 21.1604 1.65751C19.5407 0.877098 17.8316 0.320395 16.0756 0.0013166C16.0598 -0.00171939 16.0435 0.000525811 16.029 0.00773513C16.0145 0.0149444 16.0026 0.0267535 15.9948 0.0414939C15.7619 0.48536 15.5505 0.941282 15.3613 1.40752C13.4675 1.10569 11.5411 1.10569 9.64724 1.40752C9.45734 0.94013 9.24302 0.484094 9.00526 0.0414939C8.99706 0.0271928 8.98502 0.0157518 8.97065 0.00860482C8.95628 0.0014578 8.94022 -0.0010775 8.92448 0.0013166C7.16544 0.318958 5.45327 0.875702 3.83113 1.65751C3.8169 1.66384 3.80498 1.6748 3.79712 1.68876C0.557436 6.77342 -0.331138 11.7286 0.10252 16.6258C0.103748 16.6381 0.107406 16.65 0.113262 16.6608C0.119118 16.6716 0.127043 16.6809 0.136533 16.6883C2.02364 18.1539 4.13406 19.2724 6.3778 19.9962C6.39393 20.0014 6.41121 20.0013 6.42723 19.9956C6.44324 19.99 6.45718 19.9793 6.46709 19.965C6.9485 19.2768 7.3751 18.5482 7.74255 17.7865C7.74744 17.776 7.75022 17.7645 7.75071 17.7529C7.75121 17.7412 7.7494 17.7296 7.74541 17.7187C7.74142 17.7078 7.73533 17.6979 7.72752 17.6896C7.71971 17.6813 7.71036 17.6747 7.70004 17.6704C7.02596 17.3992 6.37343 17.0723 5.74858 16.6927C5.73753 16.6856 5.72828 16.6759 5.72159 16.6642C5.7149 16.6526 5.71097 16.6394 5.71014 16.6259C5.70931 16.6123 5.71159 16.5987 5.7168 16.5863C5.72201 16.5738 5.72999 16.5629 5.74007 16.5544C5.87187 16.4517 6.00367 16.3445 6.12696 16.2374C6.13784 16.2274 6.15121 16.2208 6.16551 16.2184C6.1798 16.2161 6.19445 16.218 6.20774 16.224C10.2977 18.1838 14.7278 18.1838 18.7711 16.224C18.784 16.2174 18.7984 16.2147 18.8127 16.2163C18.827 16.2179 18.8405 16.2236 18.8518 16.2329C18.9751 16.3401 19.1069 16.4517 19.2387 16.5544C19.2488 16.5629 19.2568 16.5738 19.262 16.5863C19.2672 16.5987 19.2695 16.6123 19.2687 16.6259C19.2678 16.6394 19.2639 16.6526 19.2572 16.6642C19.2505 16.6759 19.2413 16.6856 19.2302 16.6927C18.607 17.0742 17.9542 17.3998 17.2788 17.6659C17.2684 17.6703 17.2591 17.6768 17.2513 17.6851C17.2435 17.6934 17.2374 17.7033 17.2334 17.7142C17.2294 17.7251 17.2276 17.7368 17.2281 17.7484C17.2286 17.7601 17.2314 17.7715 17.2363 17.782C17.6101 18.5399 18.0364 19.268 18.5117 19.9605C18.5216 19.9748 18.5356 19.9856 18.5516 19.9912C18.5676 19.9968 18.5849 19.997 18.601 19.9917C20.8512 19.2712 22.9677 18.1525 24.8593 16.6838C24.869 16.6767 24.877 16.6673 24.8829 16.6565C24.8888 16.6457 24.8923 16.6337 24.8933 16.6213C25.412 10.9652 24.0175 6.05023 21.1944 1.68876ZM8.35477 13.6437C7.12183 13.6437 6.10996 12.4563 6.10996 11.001C6.10996 9.54565 7.10482 8.35373 8.35477 8.35373C9.61748 8.35373 10.6208 9.55012 10.5996 10.9965C10.5996 12.4563 9.60473 13.6437 8.35477 13.6437ZM16.6623 13.6437C15.4293 13.6437 14.4175 12.4563 14.4175 11.001C14.4175 9.54565 15.4081 8.35373 16.6623 8.35373C17.925 8.35373 18.9284 9.55012 18.9071 10.9965C18.9071 12.4563 17.9208 13.6437 16.6623 13.6437Z" fill="currentColor"/>
</svg>

