<svg width="24" height="24" viewBox="0 0 24 24" fill="none" xmlns="http://www.w3.org/2000/svg">
<circle cx="12" cy="12" r="12" fill="black"/>
<g clip-path="url(#clip0_10_2)">
<path d="M13.1722 6.04411C13.1722 5.45243 12.6918 4.97198 12.1001 4.97198C11.5084 4.97198 11.0279 5.45243 11.0279 6.04411L11.0303 11.0308L6.04364 11.0331C5.45196 11.0331 4.97152 11.5136 4.97152 12.1053C4.97152 12.697 5.45196 13.1774 6.04364 13.1774L11.0303 13.175L11.0327 18.1617C11.0327 18.7534 11.5131 19.2338 12.1048 19.2338C12.6965 19.2338 13.1769 18.7534 13.1769 18.1617L13.1746 13.175L18.1612 13.1727C18.7529 13.1727 19.2334 12.6922 19.2334 12.1005C19.2334 11.5089 18.7529 11.0284 18.1612 11.0284L13.1746 11.0308L13.1722 6.04411Z" fill="currentColor"/>
</g>
<defs>
<clipPath id="clip0_10_2">
<rect width="12.8527" height="17.1369" fill="white" transform="translate(1.5 10.5882) rotate(-45)"/>
</clipPath>
</defs>
</svg>

