<svg width="29" height="26" viewBox="0 0 29 26" fill="none" xmlns="http://www.w3.org/2000/svg">
<g clip-path="url(#clip0_49_4656)">
<path d="M14.5002 1.625C10.4322 1.625 7.17469 3.49375 4.80333 5.71797C2.44708 7.92188 0.871213 10.5625 0.126074 12.3754C-0.0400716 12.7766 -0.0400716 13.2234 0.126074 13.6246C0.871213 15.4375 2.44708 18.0781 4.80333 20.282C7.17469 22.5063 10.4322 24.375 14.5002 24.375C18.5683 24.375 21.8257 22.5063 24.1971 20.282C26.5533 18.073 28.1292 15.4375 28.8794 13.6246C29.0455 13.2234 29.0455 12.7766 28.8794 12.3754C28.1292 10.5625 26.5533 7.92188 24.1971 5.71797C21.8257 3.49375 18.5683 1.625 14.5002 1.625ZM7.25021 13C7.25021 11.0606 8.01404 9.20064 9.37368 7.82928C10.7333 6.45792 12.5774 5.6875 14.5002 5.6875C16.423 5.6875 18.2671 6.45792 19.6267 7.82928C20.9864 9.20064 21.7502 11.0606 21.7502 13C21.7502 14.9394 20.9864 16.7994 19.6267 18.1707C18.2671 19.5421 16.423 20.3125 14.5002 20.3125C12.5774 20.3125 10.7333 19.5421 9.37368 18.1707C8.01404 16.7994 7.25021 14.9394 7.25021 13ZM14.5002 9.75C14.5002 11.5426 13.0552 13 11.278 13C10.9205 13 10.5782 12.9391 10.2559 12.8324C9.97903 12.741 9.6568 12.9137 9.66687 13.2082C9.68198 13.5586 9.73232 13.909 9.82798 14.2594C10.5177 16.8594 13.171 18.4031 15.7488 17.7074C18.3266 17.0117 19.8572 14.3355 19.1674 11.7355C18.6085 9.62813 16.7608 8.21133 14.7066 8.125C14.4146 8.11484 14.2434 8.43477 14.3341 8.71914C14.4398 9.04414 14.5002 9.38945 14.5002 9.75Z" fill="currentColor"/>
</g>
<defs>
<clipPath id="clip0_49_4656">
<rect width="29" height="26" fill="white"/>
</clipPath>
</defs>
</svg>

