  <svg width="223" height="218" viewBox="0 0 223 218" fill="none" xmlns="http://www.w3.org/2000/svg">
<path d="M74.5881 175.52C74.5881 176.418 73.554 177.137 72.2502 177.137C70.7665 177.271 69.7325 176.553 69.7325 175.52C69.7325 174.621 70.7665 173.902 72.0704 173.902C73.4192 173.768 74.5881 174.486 74.5881 175.52ZM60.6056 173.498C60.2909 174.396 61.1901 175.43 62.5389 175.699C63.7079 176.148 65.0567 175.699 65.3264 174.801C65.5962 173.902 64.7419 172.869 63.3931 172.465C62.2242 172.15 60.9204 172.6 60.6056 173.498ZM80.4778 172.734C79.174 173.049 78.2748 173.902 78.4097 174.936C78.5446 175.834 79.7135 176.418 81.0623 176.104C82.3661 175.789 83.2653 174.936 83.1304 174.037C82.9956 173.184 81.7817 172.6 80.4778 172.734ZM110.061 0.59375C47.7022 0.59375 0 47.8965 0 110.203C0 160.021 31.3819 202.652 76.2067 217.656C81.9615 218.689 83.9847 215.141 83.9847 212.221C83.9847 209.436 83.8498 194.072 83.8498 184.639C83.8498 184.639 52.378 191.377 45.769 171.252C45.769 171.252 40.6435 158.18 33.2702 154.811C33.2702 154.811 22.9744 147.758 33.9895 147.893C33.9895 147.893 45.1845 148.791 51.3439 159.482C61.1901 176.822 77.6903 171.836 84.1196 168.871C85.1536 161.684 88.076 156.697 91.3131 153.732C66.1806 150.947 40.8234 147.309 40.8234 104.094C40.8234 91.7402 44.2403 85.541 51.4339 77.6348C50.2649 74.7148 46.4433 62.6758 52.6028 47.1328C61.9994 44.2129 83.625 59.2617 83.625 59.2617C92.6169 56.7461 102.283 55.4434 111.86 55.4434C121.436 55.4434 131.102 56.7461 140.094 59.2617C140.094 59.2617 161.72 44.168 171.117 47.1328C177.276 62.7207 173.454 74.7148 172.285 77.6348C179.479 85.5859 183.885 91.7852 183.885 104.094C183.885 147.443 157.404 150.902 132.271 153.732C136.408 157.281 139.915 164.02 139.915 174.576C139.915 189.715 139.78 208.447 139.78 212.131C139.78 215.051 141.848 218.6 147.558 217.566C192.517 202.652 223 160.021 223 110.203C223 47.8965 172.42 0.59375 110.061 0.59375ZM43.7008 155.529C43.1163 155.979 43.2512 157.012 44.0155 157.865C44.7349 158.584 45.7689 158.898 46.3534 158.314C46.9379 157.865 46.803 156.832 46.0387 155.979C45.3194 155.26 44.2853 154.945 43.7008 155.529ZM38.8452 151.891C38.5304 152.475 38.98 153.193 39.8792 153.643C40.5986 154.092 41.4978 153.957 41.8125 153.328C42.1272 152.744 41.6776 152.025 40.7784 151.576C39.8792 151.307 39.1599 151.441 38.8452 151.891ZM53.4121 167.883C52.6927 168.467 52.9625 169.814 53.9966 170.668C55.0306 171.701 56.3345 171.836 56.9189 171.117C57.5034 170.533 57.2337 169.186 56.3345 168.332C55.3454 167.299 53.9966 167.164 53.4121 167.883ZM48.2867 161.279C47.5673 161.729 47.5673 162.896 48.2867 163.93C49.006 164.963 50.22 165.412 50.8044 164.963C51.5238 164.379 51.5238 163.211 50.8044 162.178C50.175 161.145 49.006 160.695 48.2867 161.279Z" fill="currentColor"/>
</svg>

