<svg width="23" height="26" viewBox="0 0 23 26" fill="none" xmlns="http://www.w3.org/2000/svg">
<g clip-path="url(#clip0_49_4728)">
<path d="M7.39286 7.3125V9.75H15.6071V7.3125C15.6071 5.06797 13.7692 3.25 11.5 3.25C9.2308 3.25 7.39286 5.06797 7.39286 7.3125ZM4.10714 9.75V7.3125C4.10714 3.27539 7.41853 0 11.5 0C15.5815 0 18.8929 3.27539 18.8929 7.3125V9.75H19.7143C21.5266 9.75 23 11.2074 23 13V22.75C23 24.5426 21.5266 26 19.7143 26H3.28571C1.47344 26 0 24.5426 0 22.75V13C0 11.2074 1.47344 9.75 3.28571 9.75H4.10714Z" fill="currentColor"/>
</g>
<defs>
<clipPath id="clip0_49_4728">
<rect width="23" height="26" fill="white"/>
</clipPath>
</defs>
</svg>

