<svg width="26" height="26" viewBox="0 0 26 26" fill="none" xmlns="http://www.w3.org/2000/svg">
<path d="M21.2469 8.01836C23.0395 7.59687 24.375 5.98711 24.375 4.0625C24.375 1.81797 22.557 0 20.3125 0C18.1086 0 16.316 1.75195 16.25 3.93555L6.91641 7.67305C6.18008 6.94688 5.17461 6.5 4.0625 6.5C1.81797 6.5 0 8.31797 0 10.5625C0 12.807 1.81797 14.625 4.0625 14.625C4.68203 14.625 5.27109 14.4879 5.79414 14.2391L13.1879 20.7086C13.066 21.0945 13 21.5109 13 21.9375C13 24.182 14.818 26 17.0625 26C19.307 26 21.125 24.182 21.125 21.9375C21.125 20.5309 20.4141 19.2918 19.3273 18.5656L21.2469 8.01836ZM7.93711 11.7914C8.04883 11.441 8.11484 11.0703 8.125 10.6895L17.4586 6.95703C17.6414 7.13477 17.8344 7.29727 18.0477 7.43945L16.1281 17.9816C15.8488 18.0477 15.5797 18.1391 15.3258 18.2609L7.93711 11.7914Z" fill="currentColor"/>
</svg>

