<svg width="25" height="25" viewBox="0 0 25 25" fill="none" xmlns="http://www.w3.org/2000/svg">
<path d="M18.2129 6.76758C16.9824 6.76758 15.9521 5.91309 15.6787 4.76562C14.1846 4.97559 13.0322 6.26465 13.0322 7.8125V7.82227C15.3467 7.91016 17.4561 8.55957 19.1309 9.59473C19.7461 9.12109 20.5176 8.83789 21.3525 8.83789C23.3691 8.83789 25 10.4687 25 12.4854C25 13.9404 24.1504 15.1953 22.915 15.7812C22.7979 20.0195 18.1787 23.4277 12.5049 23.4277C6.83106 23.4277 2.22168 20.0244 2.09961 15.791C0.859375 15.21 0 13.9502 0 12.4854C0 10.4687 1.63086 8.83789 3.64746 8.83789C4.4873 8.83789 5.25879 9.12109 5.87891 9.59961C7.53906 8.56934 9.62891 7.91992 11.9189 7.82227V7.80762C11.9189 5.64453 13.5645 3.85742 15.6689 3.63281C15.9082 2.45117 16.9531 1.5625 18.2129 1.5625C19.6484 1.5625 20.8154 2.72949 20.8154 4.16504C20.8154 5.60059 19.6484 6.76758 18.2129 6.76758ZM7.69043 12.4658C6.66992 12.4658 5.79102 13.4814 5.72754 14.8047C5.66406 16.1279 6.5625 16.665 7.58301 16.665C8.60352 16.665 9.37012 16.1865 9.42871 14.8633C9.4873 13.54 8.71094 12.4658 7.68555 12.4658H7.69043ZM19.2871 14.7998C19.2285 13.4766 18.3496 12.4609 17.3242 12.4609C16.2988 12.4609 15.5225 13.5352 15.5811 14.8584C15.6396 16.1816 16.4062 16.6602 17.4268 16.6602C18.4473 16.6602 19.3457 16.123 19.2822 14.7998H19.2871ZM16.3525 18.2568C16.4258 18.0811 16.3037 17.8809 16.1133 17.8613C14.9902 17.749 13.7744 17.6855 12.5098 17.6855C11.2451 17.6855 10.0293 17.749 8.90625 17.8613C8.71582 17.8809 8.59375 18.0811 8.66699 18.2568C9.29688 19.7607 10.7813 20.8154 12.5098 20.8154C14.2383 20.8154 15.7227 19.7607 16.3525 18.2568Z" fill="currentColor"/>
</svg>

