<svg width="33" height="26" viewBox="0 0 33 26" fill="none" xmlns="http://www.w3.org/2000/svg">
<g clip-path="url(#clip0_49_4650)">
<path d="M16.5 0C17.4127 0 18.15 0.726172 18.15 1.625V4.875H24.3375C26.3897 4.875 28.05 6.51016 28.05 8.53125V22.3438C28.05 24.3648 26.3897 26 24.3375 26H8.6625C6.61031 26 4.95 24.3648 4.95 22.3438V8.53125C4.95 6.51016 6.61031 4.875 8.6625 4.875H14.85V1.625C14.85 0.726172 15.5873 0 16.5 0ZM10.725 19.5C10.2712 19.5 9.9 19.8656 9.9 20.3125C9.9 20.7594 10.2712 21.125 10.725 21.125H12.375C12.8287 21.125 13.2 20.7594 13.2 20.3125C13.2 19.8656 12.8287 19.5 12.375 19.5H10.725ZM15.675 19.5C15.2212 19.5 14.85 19.8656 14.85 20.3125C14.85 20.7594 15.2212 21.125 15.675 21.125H17.325C17.7787 21.125 18.15 20.7594 18.15 20.3125C18.15 19.8656 17.7787 19.5 17.325 19.5H15.675ZM20.625 19.5C20.1712 19.5 19.8 19.8656 19.8 20.3125C19.8 20.7594 20.1712 21.125 20.625 21.125H22.275C22.7287 21.125 23.1 20.7594 23.1 20.3125C23.1 19.8656 22.7287 19.5 22.275 19.5H20.625ZM13.6125 13C13.6125 12.4613 13.3952 11.9446 13.0084 11.5637C12.6216 11.1828 12.097 10.9688 11.55 10.9688C11.003 10.9688 10.4784 11.1828 10.0916 11.5637C9.7048 11.9446 9.4875 12.4613 9.4875 13C9.4875 13.5387 9.7048 14.0554 10.0916 14.4363C10.4784 14.8172 11.003 15.0312 11.55 15.0312C12.097 15.0312 12.6216 14.8172 13.0084 14.4363C13.3952 14.0554 13.6125 13.5387 13.6125 13ZM21.45 15.0312C21.997 15.0312 22.5216 14.8172 22.9084 14.4363C23.2952 14.0554 23.5125 13.5387 23.5125 13C23.5125 12.4613 23.2952 11.9446 22.9084 11.5637C22.5216 11.1828 21.997 10.9688 21.45 10.9688C20.903 10.9688 20.3784 11.1828 19.9916 11.5637C19.6048 11.9446 19.3875 12.4613 19.3875 13C19.3875 13.5387 19.6048 14.0554 19.9916 14.4363C20.3784 14.8172 20.903 15.0312 21.45 15.0312ZM2.475 11.375H3.3V21.125H2.475C1.10859 21.125 0 20.0332 0 18.6875V13.8125C0 12.4668 1.10859 11.375 2.475 11.375ZM30.525 11.375C31.8914 11.375 33 12.4668 33 13.8125V18.6875C33 20.0332 31.8914 21.125 30.525 21.125H29.7V11.375H30.525Z" fill="currentColor"/>
</g>
<defs>
<clipPath id="clip0_49_4650">
<rect width="33" height="26" fill="white"/>
</clipPath>
</defs>
</svg>

