<svg width="520" height="520" viewBox="0 0 520 520" fill="none" xmlns="http://www.w3.org/2000/svg">
<g clip-path="url(#clip0_49_4249)">
<path d="M3.16489 -3.16449H-3.16406V3.16446H3.16489V-3.16449Z" fill="#F8F5F5"/>
<path d="M32.0536 -3.16449H25.7246V3.16446H32.0536V-3.16449Z" fill="#F8F5F5"/>
<path d="M60.9422 -3.16449H54.6133V3.16446H60.9422V-3.16449Z" fill="#F8F5F5"/>
<path d="M89.8319 -3.16449H83.5029V3.16446H89.8319V-3.16449Z" fill="#F8F5F5"/>
<path d="M118.721 -3.16449H112.392V3.16446H118.721V-3.16449Z" fill="#F8F5F5"/>
<path d="M147.609 -3.16449H141.28V3.16446H147.609V-3.16449Z" fill="#F8F5F5"/>
<path d="M176.498 -3.16449H170.169V3.16446H176.498V-3.16449Z" fill="#F8F5F5"/>
<path d="M205.388 -3.16449H199.059V3.16446H205.388V-3.16449Z" fill="#F8F5F5"/>
<path d="M234.276 -3.16449H227.947V3.16446H234.276V-3.16449Z" fill="#F8F5F5"/>
<path d="M263.165 -3.16449H256.836V3.16446H263.165V-3.16449Z" fill="#F8F5F5"/>
<path d="M292.054 -3.16449H285.725V3.16446H292.054V-3.16449Z" fill="#F8F5F5"/>
<path d="M320.942 -3.16449H314.613V3.16446H320.942V-3.16449Z" fill="#F8F5F5"/>
<path d="M349.832 -3.16449H343.503V3.16446H349.832V-3.16449Z" fill="#F8F5F5"/>
<path d="M378.72 -3.16449H372.391V3.16446H378.72V-3.16449Z" fill="#F8F5F5"/>
<path d="M407.61 -3.16449H401.281V3.16446H407.61V-3.16449Z" fill="#F8F5F5"/>
<path d="M436.498 -3.16449H430.169V3.16446H436.498V-3.16449Z" fill="#F8F5F5"/>
<path d="M465.388 -3.16449H459.059V3.16446H465.388V-3.16449Z" fill="#F8F5F5"/>
<path d="M494.276 -3.16449H487.947V3.16446H494.276V-3.16449Z" fill="#F8F5F5"/>
<path d="M523.165 -3.16449H516.836V3.16446H523.165V-3.16449Z" fill="#F8F5F5"/>
<path d="M3.16489 25.7244H-3.16406V32.0534H3.16489V25.7244Z" fill="#F8F5F5"/>
<path d="M32.0536 25.7244H25.7246V32.0534H32.0536V25.7244Z" fill="#F8F5F5"/>
<path d="M60.9422 25.7244H54.6133V32.0534H60.9422V25.7244Z" stroke="#F8F5F5" stroke-width="2"/>
<path d="M89.8319 25.7244H83.5029V32.0534H89.8319V25.7244Z" stroke="#F8F5F5" stroke-width="2"/>
<path d="M118.721 25.7244H112.392V32.0534H118.721V25.7244Z" fill="#F8F5F5"/>
<path d="M147.609 25.7244H141.28V32.0534H147.609V25.7244Z" fill="#F8F5F5"/>
<path d="M176.498 25.7244H170.169V32.0534H176.498V25.7244Z" fill="#F8F5F5"/>
<path d="M205.388 25.7244H199.059V32.0534H205.388V25.7244Z" fill="#F8F5F5"/>
<path d="M234.276 25.7244H227.947V32.0534H234.276V25.7244Z" fill="#F8F5F5"/>
<path d="M263.165 25.7244H256.836V32.0534H263.165V25.7244Z" fill="#F8F5F5"/>
<path d="M292.054 25.7244H285.725V32.0534H292.054V25.7244Z" fill="#F8F5F5"/>
<path d="M320.942 25.7244H314.613V32.0534H320.942V25.7244Z" fill="#F8F5F5"/>
<path d="M349.832 25.7244H343.503V32.0534H349.832V25.7244Z" fill="#F8F5F5"/>
<path d="M378.72 25.7244H372.391V32.0534H378.72V25.7244Z" fill="#F8F5F5"/>
<path d="M407.61 25.7244H401.281V32.0534H407.61V25.7244Z" fill="#F8F5F5"/>
<path d="M436.498 25.7244H430.169V32.0534H436.498V25.7244Z" stroke="#F8F5F5" stroke-width="2"/>
<path d="M465.388 25.7244H459.059V32.0534H465.388V25.7244Z" stroke="#F8F5F5" stroke-width="2"/>
<path d="M494.276 25.7244H487.947V32.0534H494.276V25.7244Z" stroke="#F8F5F5" stroke-width="2"/>
<path d="M523.165 25.7244H516.836V32.0534H523.165V25.7244Z" fill="#F8F5F5"/>
<path d="M3.16489 54.6133H-3.16406V60.9422H3.16489V54.6133Z" fill="#F8F5F5"/>
<path d="M32.0536 54.6133H25.7246V60.9422H32.0536V54.6133Z" stroke="#F8F5F5" stroke-width="2"/>
<path d="M60.9422 54.6133H54.6133V60.9422H60.9422V54.6133Z" fill="#F8F5F5"/>
<path d="M89.8319 54.6133H83.5029V60.9422H89.8319V54.6133Z" fill="#F8F5F5"/>
<path d="M118.721 54.6133H112.392V60.9422H118.721V54.6133Z" fill="#F8F5F5"/>
<path d="M147.609 54.6133H141.28V60.9422H147.609V54.6133Z" fill="#F8F5F5"/>
<path d="M176.498 54.6133H170.169V60.9422H176.498V54.6133Z" fill="#F8F5F5"/>
<path d="M205.388 54.6133H199.059V60.9422H205.388V54.6133Z" fill="#F8F5F5"/>
<path d="M234.276 54.6133H227.947V60.9422H234.276V54.6133Z" fill="#F8F5F5"/>
<path d="M263.165 54.6133H256.836V60.9422H263.165V54.6133Z" fill="#F8F5F5"/>
<path d="M292.054 54.6133H285.725V60.9422H292.054V54.6133Z" stroke="#F8F5F5" stroke-width="2"/>
<path d="M320.942 54.6133H314.613V60.9422H320.942V54.6133Z" fill="#F8F5F5"/>
<path d="M349.832 54.6133H343.503V60.9422H349.832V54.6133Z" stroke="#F8F5F5" stroke-width="2"/>
<path d="M378.72 54.6133H372.391V60.9422H378.72V54.6133Z" fill="#F8F5F5"/>
<path d="M407.61 54.6133H401.281V60.9422H407.61V54.6133Z" fill="#F8F5F5"/>
<path d="M436.498 54.6133H430.169V60.9422H436.498V54.6133Z" fill="#F8F5F5"/>
<path d="M465.388 54.6133H459.059V60.9422H465.388V54.6133Z" fill="#F8F5F5"/>
<path d="M494.276 54.6133H487.947V60.9422H494.276V54.6133Z" stroke="#F8F5F5" stroke-width="2"/>
<path d="M523.165 54.6133H516.836V60.9422H523.165V54.6133Z" fill="#F8F5F5"/>
<path d="M3.16489 83.5022H-3.16406V89.8311H3.16489V83.5022Z" fill="#F8F5F5"/>
<path d="M32.0536 83.5022H25.7246V89.8311H32.0536V83.5022Z" fill="#F8F5F5"/>
<path d="M60.9422 83.5022H54.6133V89.8311H60.9422V83.5022Z" stroke="#F8F5F5" stroke-width="2"/>
<path d="M89.8319 83.5022H83.5029V89.8311H89.8319V83.5022Z" stroke="#F8F5F5" stroke-width="2"/>
<path d="M118.721 83.5022H112.392V89.8311H118.721V83.5022Z" fill="#F8F5F5"/>
<path d="M147.609 83.5022H141.28V89.8311H147.609V83.5022Z" fill="#F8F5F5"/>
<path d="M176.498 83.5022H170.169V89.8311H176.498V83.5022Z" stroke="#F8F5F5" stroke-width="2"/>
<path d="M205.388 83.5022H199.059V89.8311H205.388V83.5022Z" fill="#F8F5F5"/>
<path d="M234.276 83.5022H227.947V89.8311H234.276V83.5022Z" fill="#F8F5F5"/>
<path d="M263.165 83.5022H256.836V89.8311H263.165V83.5022Z" fill="#F8F5F5"/>
<path d="M292.054 83.5022H285.725V89.8311H292.054V83.5022Z" stroke="#F8F5F5" stroke-width="2"/>
<path d="M320.942 83.5022H314.613V89.8311H320.942V83.5022Z" stroke="#F8F5F5" stroke-width="2"/>
<path d="M349.832 83.5022H343.503V89.8311H349.832V83.5022Z" fill="#F8F5F5"/>
<path d="M378.72 83.5022H372.391V89.8311H378.72V83.5022Z" stroke="#F8F5F5" stroke-width="2"/>
<path d="M407.61 83.5022H401.281V89.8311H407.61V83.5022Z" fill="#F8F5F5"/>
<path d="M436.498 83.5022H430.169V89.8311H436.498V83.5022Z" fill="#F8F5F5"/>
<path d="M465.388 83.5022H459.059V89.8311H465.388V83.5022Z" fill="#F8F5F5"/>
<path d="M494.276 83.5022H487.947V89.8311H494.276V83.5022Z" fill="#F8F5F5"/>
<path d="M523.165 83.5022H516.836V89.8311H523.165V83.5022Z" fill="#F8F5F5"/>
<path d="M3.16489 112.391H-3.16406V118.72H3.16489V112.391Z" fill="#F8F5F5"/>
<path d="M32.0536 112.391H25.7246V118.72H32.0536V112.391Z" fill="#F8F5F5"/>
<path d="M60.9422 112.391H54.6133V118.72H60.9422V112.391Z" fill="#F8F5F5"/>
<path d="M89.8319 112.391H83.5029V118.72H89.8319V112.391Z" fill="#F8F5F5"/>
<path d="M118.721 112.391H112.392V118.72H118.721V112.391Z" fill="#F8F5F5"/>
<path d="M147.609 112.391H141.28V118.72H147.609V112.391Z" stroke="#F8F5F5" stroke-width="2"/>
<path d="M176.498 112.391H170.169V118.72H176.498V112.391Z" fill="#F8F5F5"/>
<path d="M205.388 112.391H199.059V118.72H205.388V112.391Z" fill="#F8F5F5"/>
<path d="M234.276 112.391H227.947V118.72H234.276V112.391Z" stroke="#F8F5F5" stroke-width="2"/>
<path d="M263.165 112.391H256.836V118.72H263.165V112.391Z" fill="#F8F5F5"/>
<path d="M292.054 112.391H285.725V118.72H292.054V112.391Z" stroke="#F8F5F5" stroke-width="2"/>
<path d="M320.942 112.391H314.613V118.72H320.942V112.391Z" fill="#F8F5F5"/>
<path d="M349.832 112.391H343.503V118.72H349.832V112.391Z" stroke="#F8F5F5" stroke-width="2"/>
<path d="M378.72 112.391H372.391V118.72H378.72V112.391Z" fill="#F8F5F5"/>
<path d="M407.61 112.391H401.281V118.72H407.61V112.391Z" fill="#F8F5F5"/>
<path d="M436.498 112.391H430.169V118.72H436.498V112.391Z" fill="#F8F5F5"/>
<path d="M465.388 112.391H459.059V118.72H465.388V112.391Z" stroke="#F8F5F5" stroke-width="2"/>
<path d="M494.276 112.391H487.947V118.72H494.276V112.391Z" fill="#F8F5F5"/>
<path d="M523.165 112.391H516.836V118.72H523.165V112.391Z" fill="#F8F5F5"/>
<path d="M3.16489 141.28H-3.16406V147.609H3.16489V141.28Z" fill="#F8F5F5"/>
<path d="M32.0536 141.28H25.7246V147.609H32.0536V141.28Z" fill="#F8F5F5"/>
<path d="M60.9422 141.28H54.6133V147.609H60.9422V141.28Z" fill="#F8F5F5"/>
<path d="M89.8319 141.28H83.5029V147.609H89.8319V141.28Z" fill="#F8F5F5"/>
<path d="M118.721 141.28H112.392V147.609H118.721V141.28Z" fill="#F8F5F5"/>
<path d="M147.609 141.28H141.28V147.609H147.609V141.28Z" stroke="#F8F5F5" stroke-width="2"/>
<path d="M176.498 141.28H170.169V147.609H176.498V141.28Z" fill="#F8F5F5"/>
<path d="M205.388 141.28H199.059V147.609H205.388V141.28Z" fill="#F8F5F5"/>
<path d="M234.276 141.28H227.947V147.609H234.276V141.28Z" fill="#F8F5F5"/>
<path d="M263.165 141.28H256.836V147.609H263.165V141.28Z" stroke="#F8F5F5" stroke-width="2"/>
<path d="M292.054 141.28H285.725V147.609H292.054V141.28Z" stroke="#F8F5F5" stroke-width="2"/>
<path d="M320.942 141.28H314.613V147.609H320.942V141.28Z" fill="#F8F5F5"/>
<path d="M349.832 141.28H343.503V147.609H349.832V141.28Z" fill="#F8F5F5"/>
<path d="M378.72 141.28H372.391V147.609H378.72V141.28Z" fill="#F8F5F5"/>
<path d="M407.61 141.28H401.281V147.609H407.61V141.28Z" fill="#F8F5F5"/>
<path d="M436.498 141.28H430.169V147.609H436.498V141.28Z" fill="#F8F5F5"/>
<path d="M465.388 141.28H459.059V147.609H465.388V141.28Z" fill="#F8F5F5"/>
<path d="M494.276 141.28H487.947V147.609H494.276V141.28Z" stroke="#F8F5F5" stroke-width="2"/>
<path d="M523.165 141.28H516.836V147.609H523.165V141.28Z" fill="#F8F5F5"/>
<path d="M3.16489 170.169H-3.16406V176.498H3.16489V170.169Z" fill="#F8F5F5"/>
<path d="M32.0536 170.169H25.7246V176.498H32.0536V170.169Z" fill="#F8F5F5"/>
<path d="M60.9422 170.169H54.6133V176.498H60.9422V170.169Z" fill="#F8F5F5"/>
<path d="M89.8319 170.169H83.5029V176.498H89.8319V170.169Z" fill="#F8F5F5"/>
<path d="M118.721 170.169H112.392V176.498H118.721V170.169Z" fill="#F8F5F5"/>
<path d="M147.609 170.169H141.28V176.498H147.609V170.169Z" fill="#F8F5F5"/>
<path d="M176.498 170.169H170.169V176.498H176.498V170.169Z" fill="#F8F5F5"/>
<path d="M205.388 170.169H199.059V176.498H205.388V170.169Z" stroke="#F8F5F5" stroke-width="2"/>
<path d="M234.276 170.169H227.947V176.498H234.276V170.169Z" fill="#F8F5F5"/>
<path d="M263.165 170.169H256.836V176.498H263.165V170.169Z" stroke="#F8F5F5" stroke-width="2"/>
<path d="M292.054 170.169H285.725V176.498H292.054V170.169Z" fill="#F8F5F5"/>
<path d="M320.942 170.169H314.613V176.498H320.942V170.169Z" fill="#F8F5F5"/>
<path d="M349.832 170.169H343.503V176.498H349.832V170.169Z" fill="#F8F5F5"/>
<path d="M378.72 170.169H372.391V176.498H378.72V170.169Z" fill="#F8F5F5"/>
<path d="M407.61 170.169H401.281V176.498H407.61V170.169Z" fill="#F8F5F5"/>
<path d="M436.498 170.169H430.169V176.498H436.498V170.169Z" fill="#F8F5F5"/>
<path d="M465.388 170.169H459.059V176.498H465.388V170.169Z" stroke="#F8F5F5" stroke-width="2"/>
<path d="M494.276 170.169H487.947V176.498H494.276V170.169Z" fill="#F8F5F5"/>
<path d="M523.165 170.169H516.836V176.498H523.165V170.169Z" fill="#F8F5F5"/>
<path d="M3.16489 199.058H-3.16406V205.387H3.16489V199.058Z" fill="#F8F5F5"/>
<path d="M32.0536 199.058H25.7246V205.387H32.0536V199.058Z" fill="#F8F5F5"/>
<path d="M60.9422 199.058H54.6133V205.387H60.9422V199.058Z" fill="#F8F5F5"/>
<path d="M89.8319 199.058H83.5029V205.387H89.8319V199.058Z" fill="#F8F5F5"/>
<path d="M118.721 199.058H112.392V205.387H118.721V199.058Z" fill="#F8F5F5"/>
<path d="M147.609 199.058H141.28V205.387H147.609V199.058Z" stroke="#F8F5F5" stroke-width="2"/>
<path d="M176.498 199.058H170.169V205.387H176.498V199.058Z" fill="#F8F5F5"/>
<path d="M205.388 199.058H199.059V205.387H205.388V199.058Z" fill="#F8F5F5"/>
<path d="M234.276 199.058H227.947V205.387H234.276V199.058Z" stroke="#F8F5F5" stroke-width="2"/>
<path d="M263.165 199.058H256.836V205.387H263.165V199.058Z" stroke="#F8F5F5" stroke-width="2"/>
<path d="M292.054 199.058H285.725V205.387H292.054V199.058Z" fill="#F8F5F5"/>
<path d="M320.942 199.058H314.613V205.387H320.942V199.058Z" fill="#F8F5F5"/>
<path d="M349.832 199.058H343.503V205.387H349.832V199.058Z" fill="#F8F5F5"/>
<path d="M378.72 199.058H372.391V205.387H378.72V199.058Z" fill="#F8F5F5"/>
<path d="M407.61 199.058H401.281V205.387H407.61V199.058Z" stroke="#F8F5F5" stroke-width="2"/>
<path d="M436.498 199.058H430.169V205.387H436.498V199.058Z" stroke="#F8F5F5" stroke-width="2"/>
<path d="M465.388 199.058H459.059V205.387H465.388V199.058Z" fill="#F8F5F5"/>
<path d="M494.276 199.058H487.947V205.387H494.276V199.058Z" stroke="#F8F5F5" stroke-width="2"/>
<path d="M523.165 199.058H516.836V205.387H523.165V199.058Z" fill="#F8F5F5"/>
<path d="M3.16489 227.947H-3.16406V234.276H3.16489V227.947Z" fill="#F8F5F5"/>
<path d="M32.0536 227.947H25.7246V234.276H32.0536V227.947Z" fill="#F8F5F5"/>
<path d="M60.9422 227.947H54.6133V234.276H60.9422V227.947Z" fill="#F8F5F5"/>
<path d="M89.8319 227.947H83.5029V234.276H89.8319V227.947Z" fill="#F8F5F5"/>
<path d="M118.721 227.947H112.392V234.276H118.721V227.947Z" fill="#F8F5F5"/>
<path d="M147.609 227.947H141.28V234.276H147.609V227.947Z" fill="#F8F5F5"/>
<path d="M176.498 227.947H170.169V234.276H176.498V227.947Z" fill="#F8F5F5"/>
<path d="M205.388 227.947H199.059V234.276H205.388V227.947Z" fill="#F8F5F5"/>
<path d="M234.276 227.947H227.947V234.276H234.276V227.947Z" fill="#F8F5F5"/>
<path d="M263.165 227.947H256.836V234.276H263.165V227.947Z" stroke="#F8F5F5" stroke-width="2"/>
<path d="M292.054 227.947H285.725V234.276H292.054V227.947Z" fill="#F8F5F5"/>
<path d="M320.942 227.947H314.613V234.276H320.942V227.947Z" fill="#F8F5F5"/>
<path d="M349.832 227.947H343.503V234.276H349.832V227.947Z" fill="#F8F5F5"/>
<path d="M378.72 227.947H372.391V234.276H378.72V227.947Z" fill="#F8F5F5"/>
<path d="M407.61 227.947H401.281V234.276H407.61V227.947Z" fill="#F8F5F5"/>
<path d="M436.498 227.947H430.169V234.276H436.498V227.947Z" fill="#F8F5F5"/>
<path d="M465.388 227.947H459.059V234.276H465.388V227.947Z" stroke="#F8F5F5" stroke-width="2"/>
<path d="M494.276 227.947H487.947V234.276H494.276V227.947Z" fill="#F8F5F5"/>
<path d="M523.165 227.947H516.836V234.276H523.165V227.947Z" fill="#F8F5F5"/>
<path d="M3.16489 256.836H-3.16406V263.164H3.16489V256.836Z" fill="#F8F5F5"/>
<path d="M32.0536 256.836H25.7246V263.164H32.0536V256.836Z" fill="#F8F5F5"/>
<path d="M60.9422 256.836H54.6133V263.164H60.9422V256.836Z" fill="#F8F5F5"/>
<path d="M89.8319 256.836H83.5029V263.164H89.8319V256.836Z" fill="#F8F5F5"/>
<path d="M118.721 256.836H112.392V263.164H118.721V256.836Z" fill="#F8F5F5"/>
<path d="M147.609 256.836H141.28V263.164H147.609V256.836Z" fill="#F8F5F5"/>
<path d="M176.498 256.836H170.169V263.164H176.498V256.836Z" fill="#F8F5F5"/>
<path d="M205.388 256.836H199.059V263.164H205.388V256.836Z" fill="#F8F5F5"/>
<path d="M234.276 256.836H227.947V263.164H234.276V256.836Z" fill="#F8F5F5"/>
<path d="M263.165 256.836H256.836V263.164H263.165V256.836Z" fill="#F8F5F5"/>
<path d="M292.054 256.836H285.725V263.164H292.054V256.836Z" fill="#F8F5F5"/>
<path d="M320.942 256.836H314.613V263.164H320.942V256.836Z" stroke="#F8F5F5" stroke-width="2"/>
<path d="M349.832 256.836H343.503V263.164H349.832V256.836Z" fill="#F8F5F5"/>
<path d="M378.72 256.836H372.391V263.164H378.72V256.836Z" fill="#F8F5F5"/>
<path d="M407.61 256.836H401.281V263.164H407.61V256.836Z" fill="#F8F5F5"/>
<path d="M436.498 256.836H430.169V263.164H436.498V256.836Z" fill="#F8F5F5"/>
<path d="M465.388 256.836H459.059V263.164H465.388V256.836Z" fill="#F8F5F5"/>
<path d="M494.276 256.836H487.947V263.164H494.276V256.836Z" fill="#F8F5F5"/>
<path d="M523.165 256.836H516.836V263.164H523.165V256.836Z" fill="#F8F5F5"/>
<path d="M3.16489 285.724H-3.16406V292.053H3.16489V285.724Z" fill="#F8F5F5"/>
<path d="M32.0536 285.724H25.7246V292.053H32.0536V285.724Z" fill="#F8F5F5"/>
<path d="M60.9422 285.724H54.6133V292.053H60.9422V285.724Z" fill="#F8F5F5"/>
<path d="M89.8319 285.724H83.5029V292.053H89.8319V285.724Z" stroke="#F8F5F5" stroke-width="2"/>
<path d="M118.721 285.724H112.392V292.053H118.721V285.724Z" fill="#F8F5F5"/>
<path d="M147.609 285.724H141.28V292.053H147.609V285.724Z" fill="#F8F5F5"/>
<path d="M176.498 285.724H170.169V292.053H176.498V285.724Z" fill="#F8F5F5"/>
<path d="M205.388 285.724H199.059V292.053H205.388V285.724Z" fill="#F8F5F5"/>
<path d="M234.276 285.724H227.947V292.053H234.276V285.724Z" fill="#F8F5F5"/>
<path d="M263.165 285.724H256.836V292.053H263.165V285.724Z" fill="#F8F5F5"/>
<path d="M292.054 285.724H285.725V292.053H292.054V285.724Z" fill="#F8F5F5"/>
<path d="M320.942 285.724H314.613V292.053H320.942V285.724Z" fill="#F8F5F5"/>
<path d="M349.832 285.724H343.503V292.053H349.832V285.724Z" stroke="#F8F5F5" stroke-width="2"/>
<path d="M378.72 285.724H372.391V292.053H378.72V285.724Z" fill="#F8F5F5"/>
<path d="M407.61 285.724H401.281V292.053H407.61V285.724Z" fill="#F8F5F5"/>
<path d="M436.498 285.724H430.169V292.053H436.498V285.724Z" fill="#F8F5F5"/>
<path d="M465.388 285.724H459.059V292.053H465.388V285.724Z" fill="#F8F5F5"/>
<path d="M494.276 285.724H487.947V292.053H494.276V285.724Z" fill="#F8F5F5"/>
<path d="M523.165 285.724H516.836V292.053H523.165V285.724Z" fill="#F8F5F5"/>
<path d="M3.16489 314.613H-3.16406V320.942H3.16489V314.613Z" fill="#F8F5F5"/>
<path d="M32.0536 314.613H25.7246V320.942H32.0536V314.613Z" stroke="#F8F5F5" stroke-width="2"/>
<path d="M60.9422 314.613H54.6133V320.942H60.9422V314.613Z" fill="#F8F5F5"/>
<path d="M89.8319 314.613H83.5029V320.942H89.8319V314.613Z" fill="#F8F5F5"/>
<path d="M118.721 314.613H112.392V320.942H118.721V314.613Z" fill="#F8F5F5"/>
<path d="M147.609 314.613H141.28V320.942H147.609V314.613Z" fill="#F8F5F5"/>
<path d="M176.498 314.613H170.169V320.942H176.498V314.613Z" fill="#F8F5F5"/>
<path d="M205.388 314.613H199.059V320.942H205.388V314.613Z" fill="#F8F5F5"/>
<path d="M234.276 314.613H227.947V320.942H234.276V314.613Z" fill="#F8F5F5"/>
<path d="M263.165 314.613H256.836V320.942H263.165V314.613Z" stroke="#F8F5F5" stroke-width="2"/>
<path d="M292.054 314.613H285.725V320.942H292.054V314.613Z" fill="#F8F5F5"/>
<path d="M320.942 314.613H314.613V320.942H320.942V314.613Z" stroke="#F8F5F5" stroke-width="2"/>
<path d="M349.832 314.613H343.503V320.942H349.832V314.613Z" fill="#F8F5F5"/>
<path d="M378.72 314.613H372.391V320.942H378.72V314.613Z" stroke="#F8F5F5" stroke-width="2"/>
<path d="M407.61 314.613H401.281V320.942H407.61V314.613Z" fill="#F8F5F5"/>
<path d="M436.498 314.613H430.169V320.942H436.498V314.613Z" stroke="#F8F5F5" stroke-width="2"/>
<path d="M465.388 314.613H459.059V320.942H465.388V314.613Z" fill="#F8F5F5"/>
<path d="M494.276 314.613H487.947V320.942H494.276V314.613Z" fill="#F8F5F5"/>
<path d="M523.165 314.613H516.836V320.942H523.165V314.613Z" fill="#F8F5F5"/>
<path d="M3.16489 343.502H-3.16406V349.831H3.16489V343.502Z" fill="#F8F5F5"/>
<path d="M32.0536 343.502H25.7246V349.831H32.0536V343.502Z" fill="#F8F5F5"/>
<path d="M60.9422 343.502H54.6133V349.831H60.9422V343.502Z" stroke="#F8F5F5" stroke-width="2"/>
<path d="M89.8319 343.502H83.5029V349.831H89.8319V343.502Z" fill="#F8F5F5"/>
<path d="M118.721 343.502H112.392V349.831H118.721V343.502Z" fill="#F8F5F5"/>
<path d="M147.609 343.502H141.28V349.831H147.609V343.502Z" stroke="#F8F5F5" stroke-width="2"/>
<path d="M176.498 343.502H170.169V349.831H176.498V343.502Z" fill="#F8F5F5"/>
<path d="M205.388 343.502H199.059V349.831H205.388V343.502Z" fill="#F8F5F5"/>
<path d="M234.276 343.502H227.947V349.831H234.276V343.502Z" fill="#F8F5F5"/>
<path d="M263.165 343.502H256.836V349.831H263.165V343.502Z" fill="#F8F5F5"/>
<path d="M292.054 343.502H285.725V349.831H292.054V343.502Z" fill="#F8F5F5"/>
<path d="M320.942 343.502H314.613V349.831H320.942V343.502Z" fill="#F8F5F5"/>
<path d="M349.832 343.502H343.503V349.831H349.832V343.502Z" fill="#F8F5F5"/>
<path d="M378.72 343.502H372.391V349.831H378.72V343.502Z" fill="#F8F5F5"/>
<path d="M407.61 343.502H401.281V349.831H407.61V343.502Z" stroke="#F8F5F5" stroke-width="2"/>
<path d="M436.498 343.502H430.169V349.831H436.498V343.502Z" fill="#F8F5F5"/>
<path d="M465.388 343.502H459.059V349.831H465.388V343.502Z" stroke="#F8F5F5" stroke-width="2"/>
<path d="M494.276 343.502H487.947V349.831H494.276V343.502Z" fill="#F8F5F5"/>
<path d="M523.165 343.502H516.836V349.831H523.165V343.502Z" fill="#F8F5F5"/>
<path d="M3.16489 372.391H-3.16406V378.72H3.16489V372.391Z" fill="#F8F5F5"/>
<path d="M32.0536 372.391H25.7246V378.72H32.0536V372.391Z" fill="#F8F5F5"/>
<path d="M60.9422 372.391H54.6133V378.72H60.9422V372.391Z" fill="#F8F5F5"/>
<path d="M89.8319 372.391H83.5029V378.72H89.8319V372.391Z" fill="#F8F5F5"/>
<path d="M118.721 372.391H112.392V378.72H118.721V372.391Z" fill="#F8F5F5"/>
<path d="M147.609 372.391H141.28V378.72H147.609V372.391Z" stroke="#F8F5F5" stroke-width="2"/>
<path d="M176.498 372.391H170.169V378.72H176.498V372.391Z" stroke="#F8F5F5" stroke-width="2"/>
<path d="M205.388 372.391H199.059V378.72H205.388V372.391Z" fill="#F8F5F5"/>
<path d="M234.276 372.391H227.947V378.72H234.276V372.391Z" fill="#F8F5F5"/>
<path d="M263.165 372.391H256.836V378.72H263.165V372.391Z" fill="#F8F5F5"/>
<path d="M292.054 372.391H285.725V378.72H292.054V372.391Z" stroke="#F8F5F5" stroke-width="2"/>
<path d="M320.942 372.391H314.613V378.72H320.942V372.391Z" fill="#F8F5F5"/>
<path d="M349.832 372.391H343.503V378.72H349.832V372.391Z" fill="#F8F5F5"/>
<path d="M378.72 372.391H372.391V378.72H378.72V372.391Z" fill="#F8F5F5"/>
<path d="M407.61 372.391H401.281V378.72H407.61V372.391Z" fill="#F8F5F5"/>
<path d="M436.498 372.391H430.169V378.72H436.498V372.391Z" fill="#F8F5F5"/>
<path d="M465.388 372.391H459.059V378.72H465.388V372.391Z" fill="#F8F5F5"/>
<path d="M494.276 372.391H487.947V378.72H494.276V372.391Z" fill="#F8F5F5"/>
<path d="M523.165 372.391H516.836V378.72H523.165V372.391Z" fill="#F8F5F5"/>
<path d="M3.16489 401.28H-3.16406V407.609H3.16489V401.28Z" fill="#F8F5F5"/>
<path d="M32.0536 401.28H25.7246V407.609H32.0536V401.28Z" fill="#F8F5F5"/>
<path d="M60.9422 401.28H54.6133V407.609H60.9422V401.28Z" fill="#F8F5F5"/>
<path d="M89.8319 401.28H83.5029V407.609H89.8319V401.28Z" fill="#F8F5F5"/>
<path d="M118.721 401.28H112.392V407.609H118.721V401.28Z" fill="#F8F5F5"/>
<path d="M147.609 401.28H141.28V407.609H147.609V401.28Z" fill="#F8F5F5"/>
<path d="M176.498 401.28H170.169V407.609H176.498V401.28Z" stroke="#F8F5F5" stroke-width="2"/>
<path d="M205.388 401.28H199.059V407.609H205.388V401.28Z" stroke="#F8F5F5" stroke-width="2"/>
<path d="M234.276 401.28H227.947V407.609H234.276V401.28Z" stroke="#F8F5F5" stroke-width="2"/>
<path d="M263.165 401.28H256.836V407.609H263.165V401.28Z" fill="#F8F5F5"/>
<path d="M292.054 401.28H285.725V407.609H292.054V401.28Z" fill="#F8F5F5"/>
<path d="M320.942 401.28H314.613V407.609H320.942V401.28Z" fill="#F8F5F5"/>
<path d="M349.832 401.28H343.503V407.609H349.832V401.28Z" stroke="#F8F5F5" stroke-width="2"/>
<path d="M378.72 401.28H372.391V407.609H378.72V401.28Z" fill="#F8F5F5"/>
<path d="M407.61 401.28H401.281V407.609H407.61V401.28Z" fill="#F8F5F5"/>
<path d="M436.498 401.28H430.169V407.609H436.498V401.28Z" stroke="#F8F5F5" stroke-width="2"/>
<path d="M465.388 401.28H459.059V407.609H465.388V401.28Z" fill="#F8F5F5"/>
<path d="M494.276 401.28H487.947V407.609H494.276V401.28Z" stroke="#F8F5F5" stroke-width="2"/>
<path d="M523.165 401.28H516.836V407.609H523.165V401.28Z" fill="#F8F5F5"/>
<path d="M3.16489 430.169H-3.16406V436.498H3.16489V430.169Z" fill="#F8F5F5"/>
<path d="M32.0536 430.169H25.7246V436.498H32.0536V430.169Z" fill="#F8F5F5"/>
<path d="M60.9422 430.169H54.6133V436.498H60.9422V430.169Z" stroke="#F8F5F5" stroke-width="2"/>
<path d="M89.8319 430.169H83.5029V436.498H89.8319V430.169Z" fill="#F8F5F5"/>
<path d="M118.721 430.169H112.392V436.498H118.721V430.169Z" fill="#F8F5F5"/>
<path d="M147.609 430.169H141.28V436.498H147.609V430.169Z" fill="#F8F5F5"/>
<path d="M176.498 430.169H170.169V436.498H176.498V430.169Z" fill="#F8F5F5"/>
<path d="M205.388 430.169H199.059V436.498H205.388V430.169Z" stroke="#F8F5F5" stroke-width="2"/>
<path d="M234.276 430.169H227.947V436.498H234.276V430.169Z" fill="#F8F5F5"/>
<path d="M263.165 430.169H256.836V436.498H263.165V430.169Z" stroke="#F8F5F5" stroke-width="2"/>
<path d="M292.054 430.169H285.725V436.498H292.054V430.169Z" fill="#F8F5F5"/>
<path d="M320.942 430.169H314.613V436.498H320.942V430.169Z" stroke="#F8F5F5" stroke-width="2"/>
<path d="M349.832 430.169H343.503V436.498H349.832V430.169Z" stroke="#F8F5F5" stroke-width="2"/>
<path d="M378.72 430.169H372.391V436.498H378.72V430.169Z" fill="#F8F5F5"/>
<path d="M407.61 430.169H401.281V436.498H407.61V430.169Z" stroke="#F8F5F5" stroke-width="2"/>
<path d="M436.498 430.169H430.169V436.498H436.498V430.169Z" stroke="#F8F5F5" stroke-width="2"/>
<path d="M465.388 430.169H459.059V436.498H465.388V430.169Z" stroke="#F8F5F5" stroke-width="2"/>
<path d="M494.276 430.169H487.947V436.498H494.276V430.169Z" fill="#F8F5F5"/>
<path d="M523.165 430.169H516.836V436.498H523.165V430.169Z" fill="#F8F5F5"/>
<path d="M3.16489 459.058H-3.16406V465.387H3.16489V459.058Z" fill="#F8F5F5"/>
<path d="M32.0536 459.058H25.7246V465.387H32.0536V459.058Z" fill="#F8F5F5"/>
<path d="M60.9422 459.058H54.6133V465.387H60.9422V459.058Z" fill="#F8F5F5"/>
<path d="M89.8319 459.058H83.5029V465.387H89.8319V459.058Z" fill="#F8F5F5"/>
<path d="M118.721 459.058H112.392V465.387H118.721V459.058Z" fill="#F8F5F5"/>
<path d="M147.609 459.058H141.28V465.387H147.609V459.058Z" stroke="#F8F5F5" stroke-width="2"/>
<path d="M176.498 459.058H170.169V465.387H176.498V459.058Z" fill="#F8F5F5"/>
<path d="M205.388 459.058H199.059V465.387H205.388V459.058Z" fill="#F8F5F5"/>
<path d="M234.276 459.058H227.947V465.387H234.276V459.058Z" stroke="#F8F5F5" stroke-width="2"/>
<path d="M263.165 459.058H256.836V465.387H263.165V459.058Z" stroke="#F8F5F5" stroke-width="2"/>
<path d="M292.054 459.058H285.725V465.387H292.054V459.058Z" fill="#F8F5F5"/>
<path d="M320.942 459.058H314.613V465.387H320.942V459.058Z" stroke="#F8F5F5" stroke-width="2"/>
<path d="M349.832 459.058H343.503V465.387H349.832V459.058Z" stroke="#F8F5F5" stroke-width="2"/>
<path d="M378.72 459.058H372.391V465.387H378.72V459.058Z" fill="#F8F5F5"/>
<path d="M407.61 459.058H401.281V465.387H407.61V459.058Z" fill="#F8F5F5"/>
<path d="M436.498 459.058H430.169V465.387H436.498V459.058Z" fill="#F8F5F5"/>
<path d="M465.388 459.058H459.059V465.387H465.388V459.058Z" stroke="#F8F5F5" stroke-width="2"/>
<path d="M494.276 459.058H487.947V465.387H494.276V459.058Z" fill="#F8F5F5"/>
<path d="M523.165 459.058H516.836V465.387H523.165V459.058Z" fill="#F8F5F5"/>
<path d="M3.16489 487.947H-3.16406V494.276H3.16489V487.947Z" fill="#F8F5F5"/>
<path d="M32.0536 487.947H25.7246V494.276H32.0536V487.947Z" fill="#F8F5F5"/>
<path d="M60.9422 487.947H54.6133V494.276H60.9422V487.947Z" stroke="#F8F5F5" stroke-width="2"/>
<path d="M89.8319 487.947H83.5029V494.276H89.8319V487.947Z" stroke="#F8F5F5" stroke-width="2"/>
<path d="M118.721 487.947H112.392V494.276H118.721V487.947Z" fill="#F8F5F5"/>
<path d="M147.609 487.947H141.28V494.276H147.609V487.947Z" fill="#F8F5F5"/>
<path d="M176.498 487.947H170.169V494.276H176.498V487.947Z" fill="#F8F5F5"/>
<path d="M205.388 487.947H199.059V494.276H205.388V487.947Z" fill="#F8F5F5"/>
<path d="M234.276 487.947H227.947V494.276H234.276V487.947Z" fill="#F8F5F5"/>
<path d="M263.165 487.947H256.836V494.276H263.165V487.947Z" stroke="#F8F5F5" stroke-width="2"/>
<path d="M292.054 487.947H285.725V494.276H292.054V487.947Z" fill="#F8F5F5"/>
<path d="M320.942 487.947H314.613V494.276H320.942V487.947Z" fill="#F8F5F5"/>
<path d="M349.832 487.947H343.503V494.276H349.832V487.947Z" fill="#F8F5F5"/>
<path d="M378.72 487.947H372.391V494.276H378.72V487.947Z" stroke="#F8F5F5" stroke-width="2"/>
<path d="M407.61 487.947H401.281V494.276H407.61V487.947Z" stroke="#F8F5F5" stroke-width="2"/>
<path d="M436.498 487.947H430.169V494.276H436.498V487.947Z" fill="#F8F5F5"/>
<path d="M465.388 487.947H459.059V494.276H465.388V487.947Z" fill="#F8F5F5"/>
<path d="M494.276 487.947H487.947V494.276H494.276V487.947Z" fill="#F8F5F5"/>
<path d="M523.165 487.947H516.836V494.276H523.165V487.947Z" fill="#F8F5F5"/>
<path d="M3.16489 516.836H-3.16406V523.164H3.16489V516.836Z" fill="#F8F5F5"/>
<path d="M32.0536 516.836H25.7246V523.164H32.0536V516.836Z" fill="#F8F5F5"/>
<path d="M60.9422 516.836H54.6133V523.164H60.9422V516.836Z" fill="#F8F5F5"/>
<path d="M89.8319 516.836H83.5029V523.164H89.8319V516.836Z" fill="#F8F5F5"/>
<path d="M118.721 516.836H112.392V523.164H118.721V516.836Z" fill="#F8F5F5"/>
<path d="M147.609 516.836H141.28V523.164H147.609V516.836Z" fill="#F8F5F5"/>
<path d="M176.498 516.836H170.169V523.164H176.498V516.836Z" fill="#F8F5F5"/>
<path d="M205.388 516.836H199.059V523.164H205.388V516.836Z" fill="#F8F5F5"/>
<path d="M234.276 516.836H227.947V523.164H234.276V516.836Z" fill="#F8F5F5"/>
<path d="M263.165 516.836H256.836V523.164H263.165V516.836Z" fill="#F8F5F5"/>
<path d="M292.054 516.836H285.725V523.164H292.054V516.836Z" fill="#F8F5F5"/>
<path d="M320.942 516.836H314.613V523.164H320.942V516.836Z" fill="#F8F5F5"/>
<path d="M349.832 516.836H343.503V523.164H349.832V516.836Z" fill="#F8F5F5"/>
<path d="M378.72 516.836H372.391V523.164H378.72V516.836Z" fill="#F8F5F5"/>
<path d="M407.61 516.836H401.281V523.164H407.61V516.836Z" fill="#F8F5F5"/>
<path d="M436.498 516.836H430.169V523.164H436.498V516.836Z" fill="#F8F5F5"/>
<path d="M465.388 516.836H459.059V523.164H465.388V516.836Z" fill="#F8F5F5"/>
<path d="M494.276 516.836H487.947V523.164H494.276V516.836Z" fill="#F8F5F5"/>
<path d="M523.165 516.836H516.836V523.164H523.165V516.836Z" fill="#F8F5F5"/>
<rect y="440" width="520" height="80" fill="url(#paint0_linear_49_4249)"/>
</g>
<defs>
<linearGradient id="paint0_linear_49_4249" x1="260" y1="440" x2="260" y2="520" gradientUnits="userSpaceOnUse">
<stop stop-color="white" stop-opacity="0"/>
<stop offset="1" stop-color="white"/>
</linearGradient>
<clipPath id="clip0_49_4249">
<rect width="520" height="520" fill="white"/>
</clipPath>
</defs>
</svg>

