<svg width="113" height="29" viewBox="0 0 113 29" fill="none" xmlns="http://www.w3.org/2000/svg">
<g clip-path="url(#clip0_49_4615)">
<path d="M27.9703 0.454544H0V28.8182H27.9703V0.454544Z" fill="#FF634D"/>
<path d="M7.23633 22.2727V19.4625L14.5912 10.7298V10.6291H7.49457V6.80167H20.6136V9.88382L13.7959 18.3445V18.4453H20.8615V22.2727H7.23633Z" fill="white"/>
<path d="M31.0884 22.5649C29.4287 22.5649 27.9963 22.2459 26.7911 21.6079C25.5929 20.9633 24.6701 20.0467 24.0227 18.8582C23.3822 17.663 23.062 16.2427 23.062 14.5976C23.062 12.9995 23.3857 11.6028 24.033 10.4076C24.6804 9.2056 25.5929 8.27222 26.7705 7.60742C27.9481 6.93596 29.3357 6.60018 30.9334 6.60018C32.0629 6.60018 33.0959 6.77146 34.0324 7.11389C34.969 7.45633 35.7782 7.96327 36.46 8.63484C37.1417 9.30629 37.672 10.1356 38.0507 11.1227C38.4296 12.1031 38.619 13.2278 38.619 14.4969V15.7257H24.8285V12.8652H33.9188C33.9119 12.3414 33.7845 11.8747 33.5366 11.4651C33.2887 11.0556 32.9478 10.7366 32.514 10.5083C32.087 10.2733 31.5945 10.1558 31.0368 10.1558C30.472 10.1558 29.9659 10.2799 29.5182 10.5284C29.0706 10.7702 28.7159 11.1026 28.4542 11.5255C28.1925 11.9419 28.0548 12.4153 28.0411 12.9458V15.8567C28.0411 16.4879 28.1685 17.0418 28.4232 17.5185C28.6781 17.9886 29.0396 18.3546 29.5079 18.6164C29.9763 18.8784 30.534 19.0093 31.1813 19.0093C31.629 19.0093 32.0353 18.9488 32.4003 18.828C32.7652 18.7071 33.0786 18.5292 33.3403 18.2942C33.602 18.0591 33.7982 17.7704 33.9291 17.4279L38.5673 17.5589C38.3744 18.5728 37.9509 19.4559 37.2967 20.2079C36.6493 20.9533 35.7989 21.5341 34.7452 21.9504C33.6915 22.36 32.4726 22.5649 31.0884 22.5649ZM46.2502 13.4493V22.2727H41.1988V6.80167H46.0022V9.64207H46.1779C46.5291 8.69527 47.1282 7.95324 47.9753 7.41607C48.8223 6.87215 49.8313 6.60018 51.002 6.60018C52.1176 6.60018 53.0851 6.84531 53.9046 7.33546C54.7311 7.81895 55.3715 8.49716 55.8261 9.37011C56.2875 10.2363 56.5147 11.2503 56.5078 12.4119V22.2727H51.4564V13.3789C51.4634 12.5193 51.2395 11.8479 50.785 11.3644C50.3374 10.8809 49.7141 10.6392 48.9153 10.6392C48.385 10.6392 47.9168 10.7534 47.5104 10.9817C47.111 11.2033 46.8011 11.5223 46.5808 11.9385C46.3672 12.3548 46.2571 12.8585 46.2502 13.4493ZM65.4303 22.4943C64.2596 22.4943 63.1956 22.1989 62.2383 21.6079C61.2811 21.0171 60.5167 20.1307 59.9451 18.9488C59.3735 17.7671 59.0878 16.2999 59.0878 14.5472C59.0878 12.7275 59.3838 11.2301 59.9761 10.055C60.5683 8.87986 61.3431 8.01029 62.3003 7.44629C63.2644 6.88218 64.3009 6.60018 65.4096 6.60018C66.2429 6.60018 66.9557 6.74124 67.5479 7.02324C68.1402 7.29858 68.6291 7.65444 69.0147 8.09091C69.4004 8.52738 69.6931 8.98066 69.8928 9.45062H69.9962V1.64463H75.0475V22.2727H70.0477V19.7647H69.8928C69.6793 20.2415 69.3763 20.688 68.9838 21.1044C68.5913 21.5207 68.0989 21.8564 67.5066 22.1116C66.9212 22.3668 66.2291 22.4943 65.4303 22.4943ZM67.1864 18.6568C67.7993 18.6568 68.3226 18.4889 68.7565 18.1531C69.1904 17.8107 69.5244 17.3306 69.7585 16.7128C69.9927 16.095 70.1097 15.3698 70.1097 14.5372C70.1097 13.6911 69.9927 12.9626 69.7585 12.3515C69.5313 11.7404 69.1972 11.2704 68.7565 10.9413C68.3226 10.6123 67.7993 10.4478 67.1864 10.4478C66.5597 10.4478 66.0294 10.6157 65.5955 10.9515C65.1617 11.2872 64.8312 11.7606 64.6039 12.3716C64.3835 12.9827 64.2733 13.7045 64.2733 14.5372C64.2733 15.3698 64.387 16.095 64.6142 16.7128C64.8415 17.3306 65.1686 17.8107 65.5955 18.1531C66.0294 18.4889 66.5597 18.6568 67.1864 18.6568ZM85.6486 22.5649C83.982 22.5649 82.5496 22.2325 81.3513 21.5677C80.1599 20.8962 79.2406 19.9628 78.5932 18.7675C77.9527 17.5656 77.6325 16.1723 77.6325 14.5876C77.6325 12.9961 77.9527 11.6028 78.5932 10.4076C79.2406 9.2056 80.1599 8.27222 81.3513 7.60742C82.5496 6.93596 83.982 6.60018 85.6486 6.60018C87.3152 6.60018 88.7441 6.93596 89.9355 7.60742C91.1338 8.27222 92.0531 9.2056 92.6936 10.4076C93.341 11.6028 93.6646 12.9961 93.6646 14.5876C93.6646 16.1723 93.341 17.5656 92.6936 18.7675C92.0531 19.9628 91.1338 20.8962 89.9355 21.5677C88.7441 22.2325 87.3152 22.5649 85.6486 22.5649ZM85.6796 18.8481C86.2856 18.8481 86.7986 18.6668 87.2187 18.3042C87.6388 17.9416 87.959 17.438 88.1794 16.7934C88.4067 16.1488 88.5203 15.4034 88.5203 14.5574C88.5203 13.6979 88.4067 12.9458 88.1794 12.3012C87.959 11.6565 87.6388 11.1529 87.2187 10.7903C86.7986 10.4276 86.2856 10.2464 85.6796 10.2464C85.0529 10.2464 84.5226 10.4276 84.0887 10.7903C83.6618 11.1529 83.3346 11.6565 83.1074 12.3012C82.887 12.9458 82.7768 13.6979 82.7768 14.5574C82.7768 15.4034 82.887 16.1488 83.1074 16.7934C83.3346 17.438 83.6618 17.9416 84.0887 18.3042C84.5226 18.6668 85.0529 18.8481 85.6796 18.8481ZM103.659 22.5649C101.985 22.5649 100.549 22.2291 99.3512 21.5576C98.1598 20.8861 97.2439 19.9527 96.6034 18.7575C95.963 17.5555 95.6428 16.1656 95.6428 14.5876C95.6428 13.0028 95.963 11.6129 96.6034 10.4176C97.2508 9.21564 98.1702 8.27887 99.3615 7.60742C100.56 6.93596 101.989 6.60018 103.648 6.60018C105.115 6.60018 106.393 6.85873 107.481 7.37582C108.576 7.8928 109.43 8.62469 110.043 9.57149C110.663 10.5116 110.99 11.6162 111.024 12.8853H106.303C106.207 12.093 105.931 11.4719 105.477 11.022C105.029 10.5721 104.444 10.3471 103.721 10.3471C103.135 10.3471 102.622 10.5083 102.182 10.8306C101.741 11.1462 101.397 11.6162 101.149 12.2407C100.908 12.8585 100.787 13.624 100.787 14.5372C100.787 15.4504 100.908 16.2227 101.149 16.8539C101.397 17.4783 101.741 17.9517 102.182 18.274C102.622 18.5896 103.135 18.7475 103.721 18.7475C104.189 18.7475 104.602 18.65 104.96 18.4553C105.325 18.2606 105.625 17.9752 105.859 17.5992C106.093 17.2165 106.241 16.7531 106.303 16.2092H111.024C110.976 17.4851 110.649 18.5996 110.043 19.5532C109.444 20.5068 108.6 21.2487 107.512 21.7792C106.431 22.3029 105.146 22.5649 103.659 22.5649Z" fill="#FF634D"/>
<mask id="mask0_49_4615" style="mask-type:alpha" maskUnits="userSpaceOnUse" x="0" y="0" width="28" height="31">
<path d="M27.9703 0.454544H0V31H27.9703V0.454544Z" fill="#FF0000"/>
</mask>
<g mask="url(#mask0_49_4615)">
<path d="M7.23633 22.2727V19.4625L14.5912 10.7298V10.6291H7.49457V6.80167H20.6136V9.88382L13.7959 18.3445V18.4453H20.8615V22.2727H7.23633ZM31.0881 22.5649C29.4285 22.5649 27.9961 22.2459 26.7909 21.6079C25.5926 20.9633 24.6698 20.0467 24.0225 18.8582C23.382 17.663 23.0618 16.2427 23.0618 14.5976C23.0618 12.9995 23.3854 11.6028 24.0328 10.4076C24.6801 9.2056 25.5926 8.27221 26.7703 7.60742C27.9478 6.93596 29.3355 6.60018 30.9332 6.60018C32.0626 6.60018 33.0956 6.77145 34.0322 7.11389C34.9687 7.45632 35.778 7.96327 36.4598 8.63483C37.1415 9.30629 37.6718 10.1356 38.0505 11.1227C38.4293 12.1031 38.6187 13.2278 38.6187 14.4969V15.7257H24.8283V12.8652H33.9186C33.9117 12.3414 33.7842 11.8747 33.5363 11.4651C33.2885 11.0556 32.9476 10.7366 32.5137 10.5083C32.0868 10.2733 31.5943 10.1558 31.0365 10.1558C30.4718 10.1558 29.9656 10.2799 29.518 10.5284C29.0703 10.7702 28.7157 11.1026 28.454 11.5255C28.1923 11.9419 28.0546 12.4153 28.0408 12.9458V15.8567C28.0408 16.4879 28.1682 17.0418 28.423 17.5185C28.6779 17.9886 29.0394 18.3546 29.5077 18.6164C29.976 18.8784 30.5338 19.0093 31.1811 19.0093C31.6287 19.0093 32.0351 18.9488 32.4 18.828C32.765 18.7071 33.0784 18.5292 33.3401 18.2942C33.6018 18.0591 33.798 17.7704 33.9289 17.4279L38.567 17.5589C38.3742 18.5728 37.9507 19.4559 37.2964 20.2079C36.6491 20.9533 35.7987 21.5341 34.745 21.9504C33.6913 22.36 32.4723 22.5649 31.0881 22.5649ZM46.2499 13.4493V22.2727H41.1986V6.80167H46.002V9.64207H46.1776C46.5288 8.69527 47.128 7.95323 47.975 7.41607C48.8221 6.87214 49.831 6.60018 51.0017 6.60018C52.1173 6.60018 53.0849 6.84531 53.9044 7.33545C54.7309 7.81894 55.3713 8.49716 55.8258 9.37011C56.2872 10.2363 56.5145 11.2503 56.5075 12.4119V22.2727H51.4562V13.3789C51.4631 12.5193 51.2393 11.8479 50.7848 11.3644C50.3372 10.8809 49.7139 10.6392 48.915 10.6392C48.3847 10.6392 47.9165 10.7534 47.5102 10.9817C47.1107 11.2033 46.8008 11.5223 46.5805 11.9385C46.367 12.3548 46.2569 12.8585 46.2499 13.4493ZM65.43 22.4943C64.2593 22.4943 63.1953 22.1989 62.2381 21.6079C61.2808 21.0171 60.5165 20.1307 59.9449 18.9488C59.3733 17.7671 59.0875 16.2999 59.0875 14.5472C59.0875 12.7275 59.3835 11.2301 59.9758 10.055C60.568 8.87985 61.3428 8.01029 62.3001 7.44629C63.2641 6.88218 64.3006 6.60018 65.4094 6.60018C66.2426 6.60018 66.9554 6.74123 67.5476 7.02323C68.1399 7.29858 68.6288 7.65443 69.0145 8.09091C69.4002 8.52738 69.6928 8.98065 69.8925 9.45061H69.9959V1.64463H75.0472V22.2727H70.0475V19.7647H69.8925C69.6791 20.2415 69.3761 20.688 68.9835 21.1044C68.591 21.5207 68.0986 21.8564 67.5063 22.1116C66.921 22.3668 66.2289 22.4943 65.43 22.4943ZM67.1861 18.6568C67.799 18.6568 68.3224 18.4889 68.7563 18.1531C69.1902 17.8107 69.5241 17.3306 69.7583 16.7128C69.9925 16.095 70.1095 15.3698 70.1095 14.5372C70.1095 13.6911 69.9925 12.9626 69.7583 12.3515C69.5311 11.7404 69.197 11.2704 68.7563 10.9413C68.3224 10.6123 67.799 10.4478 67.1861 10.4478C66.5595 10.4478 66.0292 10.6157 65.5953 10.9515C65.1614 11.2872 64.8309 11.7606 64.6037 12.3716C64.3833 12.9827 64.2731 13.7045 64.2731 14.5372C64.2731 15.3698 64.3868 16.095 64.614 16.7128C64.8412 17.3306 65.1684 17.8107 65.5953 18.1531C66.0292 18.4889 66.5595 18.6568 67.1861 18.6568ZM85.6483 22.5649C83.9817 22.5649 82.5493 22.2325 81.3511 21.5677C80.1597 20.8962 79.2403 19.9628 78.593 18.7675C77.9525 17.5656 77.6323 16.1723 77.6323 14.5876C77.6323 12.9961 77.9525 11.6028 78.593 10.4076C79.2403 9.2056 80.1597 8.27221 81.3511 7.60742C82.5493 6.93596 83.9817 6.60018 85.6483 6.60018C87.3149 6.60018 88.7439 6.93596 89.9353 7.60742C91.1335 8.27221 92.0528 9.2056 92.6934 10.4076C93.3407 11.6028 93.6644 12.9961 93.6644 14.5876C93.6644 16.1723 93.3407 17.5656 92.6934 18.7675C92.0528 19.9628 91.1335 20.8962 89.9353 21.5677C88.7439 22.2325 87.3149 22.5649 85.6483 22.5649ZM85.6793 18.8481C86.2854 18.8481 86.7983 18.6668 87.2185 18.3042C87.6386 17.9416 87.9588 17.438 88.1792 16.7934C88.4064 16.1488 88.5201 15.4034 88.5201 14.5574C88.5201 13.6979 88.4064 12.9458 88.1792 12.3012C87.9588 11.6565 87.6386 11.1529 87.2185 10.7903C86.7983 10.4276 86.2854 10.2464 85.6793 10.2464C85.0527 10.2464 84.5223 10.4276 84.0885 10.7903C83.6615 11.1529 83.3344 11.6565 83.1072 12.3012C82.8868 12.9458 82.7766 13.6979 82.7766 14.5574C82.7766 15.4034 82.8868 16.1488 83.1072 16.7934C83.3344 17.438 83.6615 17.9416 84.0885 18.3042C84.5223 18.6668 85.0527 18.8481 85.6793 18.8481ZM103.659 22.5649C101.985 22.5649 100.549 22.2291 99.351 21.5576C98.1595 20.8861 97.2437 19.9527 96.6032 18.7575C95.9628 17.5555 95.6426 16.1656 95.6426 14.5876C95.6426 13.0028 95.9628 11.6129 96.6032 10.4176C97.2505 9.21563 98.17 8.27887 99.3613 7.60742C100.56 6.93596 101.989 6.60018 103.648 6.60018C105.115 6.60018 106.393 6.85872 107.481 7.37581C108.576 7.8928 109.43 8.62469 110.042 9.57149C110.662 10.5116 110.989 11.6162 111.024 12.8853H106.303C106.207 12.093 105.931 11.4719 105.477 11.022C105.029 10.5721 104.444 10.3471 103.72 10.3471C103.135 10.3471 102.622 10.5083 102.181 10.8306C101.741 11.1462 101.396 11.6162 101.148 12.2407C100.907 12.8585 100.787 13.624 100.787 14.5372C100.787 15.4504 100.907 16.2227 101.148 16.8539C101.396 17.4783 101.741 17.9517 102.181 18.274C102.622 18.5896 103.135 18.7474 103.72 18.7474C104.189 18.7474 104.602 18.65 104.96 18.4553C105.325 18.2606 105.625 17.9752 105.859 17.5992C106.093 17.2165 106.241 16.753 106.303 16.2092H111.024C110.976 17.4851 110.649 18.5996 110.042 19.5532C109.443 20.5068 108.6 21.2487 107.512 21.7792C106.43 22.3029 105.146 22.5649 103.659 22.5649Z" fill="white"/>
</g>
<path d="M7.23633 22.2727V19.4625L14.5912 10.7298V10.6291H7.49457V6.80167H20.6136V9.88382L13.7959 18.3445V18.4453H20.8615V22.2727H7.23633Z" fill="white"/>
<path d="M31.0884 22.5649C29.4287 22.5649 27.9963 22.2459 26.7911 21.6079C25.5929 20.9633 24.6701 20.0467 24.0227 18.8582C23.3822 17.663 23.062 16.2427 23.062 14.5976C23.062 12.9995 23.3857 11.6028 24.033 10.4076C24.6804 9.2056 25.5929 8.27222 26.7705 7.60742C27.9481 6.93596 29.3357 6.60018 30.9334 6.60018C32.0629 6.60018 33.0959 6.77146 34.0324 7.11389C34.969 7.45633 35.7782 7.96327 36.46 8.63484C37.1417 9.30629 37.672 10.1356 38.0507 11.1227C38.4296 12.1031 38.619 13.2278 38.619 14.4969V15.7257H24.8285V12.8652H33.9188C33.9119 12.3414 33.7845 11.8747 33.5366 11.4651C33.2887 11.0556 32.9478 10.7366 32.514 10.5083C32.087 10.2733 31.5945 10.1558 31.0368 10.1558C30.472 10.1558 29.9659 10.2799 29.5182 10.5284C29.0706 10.7702 28.7159 11.1026 28.4542 11.5255C28.1925 11.9419 28.0548 12.4153 28.0411 12.9458V15.8567C28.0411 16.4879 28.1685 17.0418 28.4232 17.5185C28.6781 17.9886 29.0396 18.3546 29.5079 18.6164C29.9763 18.8784 30.534 19.0093 31.1813 19.0093C31.629 19.0093 32.0353 18.9488 32.4003 18.828C32.7652 18.7071 33.0786 18.5292 33.3403 18.2942C33.602 18.0591 33.7982 17.7704 33.9291 17.4279L38.5673 17.5589C38.3744 18.5728 37.9509 19.4559 37.2967 20.2079C36.6493 20.9533 35.7989 21.5341 34.7452 21.9504C33.6915 22.36 32.4726 22.5649 31.0884 22.5649ZM46.2502 13.4493V22.2727H41.1988V6.80167H46.0022V9.64207H46.1779C46.5291 8.69527 47.1282 7.95324 47.9753 7.41607C48.8223 6.87215 49.8313 6.60018 51.002 6.60018C52.1176 6.60018 53.0851 6.84531 53.9046 7.33546C54.7311 7.81895 55.3715 8.49716 55.8261 9.37011C56.2875 10.2363 56.5147 11.2503 56.5078 12.4119V22.2727H51.4564V13.3789C51.4634 12.5193 51.2395 11.8479 50.785 11.3644C50.3374 10.8809 49.7141 10.6392 48.9153 10.6392C48.385 10.6392 47.9168 10.7534 47.5104 10.9817C47.111 11.2033 46.8011 11.5223 46.5808 11.9385C46.3672 12.3548 46.2571 12.8585 46.2502 13.4493ZM65.4303 22.4943C64.2596 22.4943 63.1956 22.1989 62.2383 21.6079C61.2811 21.0171 60.5167 20.1307 59.9451 18.9488C59.3735 17.7671 59.0878 16.2999 59.0878 14.5472C59.0878 12.7275 59.3838 11.2301 59.9761 10.055C60.5683 8.87986 61.3431 8.01029 62.3003 7.44629C63.2644 6.88218 64.3009 6.60018 65.4096 6.60018C66.2429 6.60018 66.9557 6.74124 67.5479 7.02324C68.1402 7.29858 68.6291 7.65444 69.0147 8.09091C69.4004 8.52738 69.6931 8.98066 69.8928 9.45062H69.9962V1.64463H75.0475V22.2727H70.0477V19.7647H69.8928C69.6793 20.2415 69.3763 20.688 68.9838 21.1044C68.5913 21.5207 68.0989 21.8564 67.5066 22.1116C66.9212 22.3668 66.2291 22.4943 65.4303 22.4943ZM67.1864 18.6568C67.7993 18.6568 68.3226 18.4889 68.7565 18.1531C69.1904 17.8107 69.5244 17.3306 69.7585 16.7128C69.9927 16.095 70.1097 15.3698 70.1097 14.5372C70.1097 13.6911 69.9927 12.9626 69.7585 12.3515C69.5313 11.7404 69.1972 11.2704 68.7565 10.9413C68.3226 10.6123 67.7993 10.4478 67.1864 10.4478C66.5597 10.4478 66.0294 10.6157 65.5955 10.9515C65.1617 11.2872 64.8312 11.7606 64.6039 12.3716C64.3835 12.9827 64.2733 13.7045 64.2733 14.5372C64.2733 15.3698 64.387 16.095 64.6142 16.7128C64.8415 17.3306 65.1686 17.8107 65.5955 18.1531C66.0294 18.4889 66.5597 18.6568 67.1864 18.6568ZM85.6486 22.5649C83.982 22.5649 82.5496 22.2325 81.3513 21.5677C80.1599 20.8962 79.2406 19.9628 78.5932 18.7675C77.9527 17.5656 77.6325 16.1723 77.6325 14.5876C77.6325 12.9961 77.9527 11.6028 78.5932 10.4076C79.2406 9.2056 80.1599 8.27222 81.3513 7.60742C82.5496 6.93596 83.982 6.60018 85.6486 6.60018C87.3152 6.60018 88.7441 6.93596 89.9355 7.60742C91.1338 8.27222 92.0531 9.2056 92.6936 10.4076C93.341 11.6028 93.6646 12.9961 93.6646 14.5876C93.6646 16.1723 93.341 17.5656 92.6936 18.7675C92.0531 19.9628 91.1338 20.8962 89.9355 21.5677C88.7441 22.2325 87.3152 22.5649 85.6486 22.5649ZM85.6796 18.8481C86.2856 18.8481 86.7986 18.6668 87.2187 18.3042C87.6388 17.9416 87.959 17.438 88.1794 16.7934C88.4067 16.1488 88.5203 15.4034 88.5203 14.5574C88.5203 13.6979 88.4067 12.9458 88.1794 12.3012C87.959 11.6565 87.6388 11.1529 87.2187 10.7903C86.7986 10.4276 86.2856 10.2464 85.6796 10.2464C85.0529 10.2464 84.5226 10.4276 84.0887 10.7903C83.6618 11.1529 83.3346 11.6565 83.1074 12.3012C82.887 12.9458 82.7768 13.6979 82.7768 14.5574C82.7768 15.4034 82.887 16.1488 83.1074 16.7934C83.3346 17.438 83.6618 17.9416 84.0887 18.3042C84.5226 18.6668 85.0529 18.8481 85.6796 18.8481ZM103.659 22.5649C101.985 22.5649 100.549 22.2291 99.3512 21.5576C98.1598 20.8861 97.2439 19.9527 96.6034 18.7575C95.963 17.5555 95.6428 16.1656 95.6428 14.5876C95.6428 13.0028 95.963 11.6129 96.6034 10.4176C97.2508 9.21564 98.1702 8.27887 99.3615 7.60742C100.56 6.93596 101.989 6.60018 103.648 6.60018C105.115 6.60018 106.393 6.85873 107.481 7.37582C108.576 7.8928 109.43 8.62469 110.043 9.57149C110.663 10.5116 110.99 11.6162 111.024 12.8853H106.303C106.207 12.093 105.931 11.4719 105.477 11.022C105.029 10.5721 104.444 10.3471 103.721 10.3471C103.135 10.3471 102.622 10.5083 102.182 10.8306C101.741 11.1462 101.397 11.6162 101.149 12.2407C100.908 12.8585 100.787 13.624 100.787 14.5372C100.787 15.4504 100.908 16.2227 101.149 16.8539C101.397 17.4783 101.741 17.9517 102.182 18.274C102.622 18.5896 103.135 18.7475 103.721 18.7475C104.189 18.7475 104.602 18.65 104.96 18.4553C105.325 18.2606 105.625 17.9752 105.859 17.5992C106.093 17.2165 106.241 16.7531 106.303 16.2092H111.024C110.976 17.4851 110.649 18.5996 110.043 19.5532C109.444 20.5068 108.6 21.2487 107.512 21.7792C106.431 22.3029 105.146 22.5649 103.659 22.5649Z" fill="#FF634D"/>
<mask id="mask1_49_4615" style="mask-type:alpha" maskUnits="userSpaceOnUse" x="0" y="0" width="28" height="31">
<path d="M27.9703 0.454544H0V31H27.9703V0.454544Z" fill="#FF0000"/>
</mask>
<g mask="url(#mask1_49_4615)">
<path d="M7.23633 22.2727V19.4625L14.5912 10.7298V10.6291H7.49457V6.80167H20.6136V9.88382L13.7959 18.3445V18.4453H20.8615V22.2727H7.23633ZM31.0881 22.5649C29.4285 22.5649 27.9961 22.2459 26.7909 21.6079C25.5926 20.9633 24.6698 20.0467 24.0225 18.8582C23.382 17.663 23.0618 16.2427 23.0618 14.5976C23.0618 12.9995 23.3854 11.6028 24.0328 10.4076C24.6801 9.2056 25.5926 8.27221 26.7703 7.60742C27.9478 6.93596 29.3355 6.60018 30.9332 6.60018C32.0626 6.60018 33.0956 6.77145 34.0322 7.11389C34.9687 7.45632 35.778 7.96327 36.4598 8.63483C37.1415 9.30629 37.6718 10.1356 38.0505 11.1227C38.4293 12.1031 38.6187 13.2278 38.6187 14.4969V15.7257H24.8283V12.8652H33.9186C33.9117 12.3414 33.7842 11.8747 33.5363 11.4651C33.2885 11.0556 32.9476 10.7366 32.5137 10.5083C32.0868 10.2733 31.5943 10.1558 31.0365 10.1558C30.4718 10.1558 29.9656 10.2799 29.518 10.5284C29.0703 10.7702 28.7157 11.1026 28.454 11.5255C28.1923 11.9419 28.0546 12.4153 28.0408 12.9458V15.8567C28.0408 16.4879 28.1682 17.0418 28.423 17.5185C28.6779 17.9886 29.0394 18.3546 29.5077 18.6164C29.976 18.8784 30.5338 19.0093 31.1811 19.0093C31.6287 19.0093 32.0351 18.9488 32.4 18.828C32.765 18.7071 33.0784 18.5292 33.3401 18.2942C33.6018 18.0591 33.798 17.7704 33.9289 17.4279L38.567 17.5589C38.3742 18.5728 37.9507 19.4559 37.2964 20.2079C36.6491 20.9533 35.7987 21.5341 34.745 21.9504C33.6913 22.36 32.4723 22.5649 31.0881 22.5649ZM46.2499 13.4493V22.2727H41.1986V6.80167H46.002V9.64207H46.1776C46.5288 8.69527 47.128 7.95323 47.975 7.41607C48.8221 6.87214 49.831 6.60018 51.0017 6.60018C52.1173 6.60018 53.0849 6.84531 53.9044 7.33545C54.7309 7.81894 55.3713 8.49716 55.8258 9.37011C56.2872 10.2363 56.5145 11.2503 56.5075 12.4119V22.2727H51.4562V13.3789C51.4631 12.5193 51.2393 11.8479 50.7848 11.3644C50.3372 10.8809 49.7139 10.6392 48.915 10.6392C48.3847 10.6392 47.9165 10.7534 47.5102 10.9817C47.1107 11.2033 46.8008 11.5223 46.5805 11.9385C46.367 12.3548 46.2569 12.8585 46.2499 13.4493ZM65.43 22.4943C64.2593 22.4943 63.1953 22.1989 62.2381 21.6079C61.2808 21.0171 60.5165 20.1307 59.9449 18.9488C59.3733 17.7671 59.0875 16.2999 59.0875 14.5472C59.0875 12.7275 59.3835 11.2301 59.9758 10.055C60.568 8.87985 61.3428 8.01029 62.3001 7.44629C63.2641 6.88218 64.3006 6.60018 65.4094 6.60018C66.2426 6.60018 66.9554 6.74123 67.5476 7.02323C68.1399 7.29858 68.6288 7.65443 69.0145 8.09091C69.4002 8.52738 69.6928 8.98065 69.8925 9.45061H69.9959V1.64463H75.0472V22.2727H70.0475V19.7647H69.8925C69.6791 20.2415 69.3761 20.688 68.9835 21.1044C68.591 21.5207 68.0986 21.8564 67.5063 22.1116C66.921 22.3668 66.2289 22.4943 65.43 22.4943ZM67.1861 18.6568C67.799 18.6568 68.3224 18.4889 68.7563 18.1531C69.1902 17.8107 69.5241 17.3306 69.7583 16.7128C69.9925 16.095 70.1095 15.3698 70.1095 14.5372C70.1095 13.6911 69.9925 12.9626 69.7583 12.3515C69.5311 11.7404 69.197 11.2704 68.7563 10.9413C68.3224 10.6123 67.799 10.4478 67.1861 10.4478C66.5595 10.4478 66.0292 10.6157 65.5953 10.9515C65.1614 11.2872 64.8309 11.7606 64.6037 12.3716C64.3833 12.9827 64.2731 13.7045 64.2731 14.5372C64.2731 15.3698 64.3868 16.095 64.614 16.7128C64.8412 17.3306 65.1684 17.8107 65.5953 18.1531C66.0292 18.4889 66.5595 18.6568 67.1861 18.6568ZM85.6483 22.5649C83.9817 22.5649 82.5493 22.2325 81.3511 21.5677C80.1597 20.8962 79.2403 19.9628 78.593 18.7675C77.9525 17.5656 77.6323 16.1723 77.6323 14.5876C77.6323 12.9961 77.9525 11.6028 78.593 10.4076C79.2403 9.2056 80.1597 8.27221 81.3511 7.60742C82.5493 6.93596 83.9817 6.60018 85.6483 6.60018C87.3149 6.60018 88.7439 6.93596 89.9353 7.60742C91.1335 8.27221 92.0528 9.2056 92.6934 10.4076C93.3407 11.6028 93.6644 12.9961 93.6644 14.5876C93.6644 16.1723 93.3407 17.5656 92.6934 18.7675C92.0528 19.9628 91.1335 20.8962 89.9353 21.5677C88.7439 22.2325 87.3149 22.5649 85.6483 22.5649ZM85.6793 18.8481C86.2854 18.8481 86.7983 18.6668 87.2185 18.3042C87.6386 17.9416 87.9588 17.438 88.1792 16.7934C88.4064 16.1488 88.5201 15.4034 88.5201 14.5574C88.5201 13.6979 88.4064 12.9458 88.1792 12.3012C87.9588 11.6565 87.6386 11.1529 87.2185 10.7903C86.7983 10.4276 86.2854 10.2464 85.6793 10.2464C85.0527 10.2464 84.5223 10.4276 84.0885 10.7903C83.6615 11.1529 83.3344 11.6565 83.1072 12.3012C82.8868 12.9458 82.7766 13.6979 82.7766 14.5574C82.7766 15.4034 82.8868 16.1488 83.1072 16.7934C83.3344 17.438 83.6615 17.9416 84.0885 18.3042C84.5223 18.6668 85.0527 18.8481 85.6793 18.8481ZM103.659 22.5649C101.985 22.5649 100.549 22.2291 99.351 21.5576C98.1595 20.8861 97.2437 19.9527 96.6032 18.7575C95.9628 17.5555 95.6426 16.1656 95.6426 14.5876C95.6426 13.0028 95.9628 11.6129 96.6032 10.4176C97.2505 9.21563 98.17 8.27887 99.3613 7.60742C100.56 6.93596 101.989 6.60018 103.648 6.60018C105.115 6.60018 106.393 6.85872 107.481 7.37581C108.576 7.8928 109.43 8.62469 110.042 9.57149C110.662 10.5116 110.989 11.6162 111.024 12.8853H106.303C106.207 12.093 105.931 11.4719 105.477 11.022C105.029 10.5721 104.444 10.3471 103.72 10.3471C103.135 10.3471 102.622 10.5083 102.181 10.8306C101.741 11.1462 101.396 11.6162 101.148 12.2407C100.907 12.8585 100.787 13.624 100.787 14.5372C100.787 15.4504 100.907 16.2227 101.148 16.8539C101.396 17.4783 101.741 17.9517 102.181 18.274C102.622 18.5896 103.135 18.7474 103.72 18.7474C104.189 18.7474 104.602 18.65 104.96 18.4553C105.325 18.2606 105.625 17.9752 105.859 17.5992C106.093 17.2165 106.241 16.753 106.303 16.2092H111.024C110.976 17.4851 110.649 18.5996 110.042 19.5532C109.443 20.5068 108.6 21.2487 107.512 21.7792C106.43 22.3029 105.146 22.5649 103.659 22.5649Z" fill="white"/>
</g>
</g>
<defs>
<clipPath id="clip0_49_4615">
<rect width="113" height="29" fill="white"/>
</clipPath>
</defs>
</svg>

